<?xml version="1.0" encoding="UTF-8" standalone="no"?>
<!-- Created with Inkscape (http://www.inkscape.org/) -->
<svg id="svg4272" xmlns:rdf="http://www.w3.org/1999/02/22-rdf-syntax-ns#" xmlns="http://www.w3.org/2000/svg" height="102.61mm" viewBox="0 0 1047.7974 363.59312" width="295.71mm" version="1.1" xmlns:cc="http://creativecommons.org/ns#" xmlns:dc="http://purl.org/dc/elements/1.1/">
 <metadata id="metadata4277">
  <rdf:RDF>
   <cc:Work rdf:about="">
    <dc:format>image/svg+xml</dc:format>
    <dc:type rdf:resource="http://purl.org/dc/dcmitype/StillImage"/>
    <dc:title/>
   </cc:Work>
  </rdf:RDF>
 </metadata>
 <g id="layer1" transform="translate(78.68 -142)">
  <g id="g3553" transform="translate(-1979.8,-1490.2)">
   <path id="rect3387-3-7-0-5-3-3-2-7-61-6-4-3-3-4-7-4-5-1-69-8-2-2-2-9" d="m1964.8 1723.1 63.622-90.893 63.622 90.893z" fill="#80deea"/>
   <path id="rect3387-3-7-0-5-3-3-2-7-61-6-4-3-3-6-3-8-5-3-9-9-5-0-8" d="m2028.4 1632.2 63.621 90.893 40.574-57.965a181.81 181.81 0 0 0 -17.035 -10.672 181.81 181.81 0 0 0 -33.434 -14.135 181.81 181.81 0 0 0 -53.727 -8.1211z" fill="#b2ebf2"/>
   <path id="rect3387-3-7-0-5-3-3-2-7-61-6-4-3-3-46-9-9-3-0-0-9-1-2-7-0" d="m2028.4 1632.2a181.81 181.81 0 0 0 -12.859 0.4551 181.81 181.81 0 0 0 -35.774 6.1699 181.81 181.81 0 0 0 -49.598 22.197 181.81 181.81 0 0 0 -5.8828 4.207l40.496 57.856 63.617-90.885z" fill="#006064"/>
   <path id="rect3387-3-7-0-5-3-3-2-7-61-6-4-3-3-4-5-3-9-7-4-1-7-1-5-7-4-2" d="m1964.8 1723.1 63.622 90.893 63.622-90.893z" fill="#4dd0e1"/>
   <path id="rect3387-3-7-0-5-3-3-2-7-61-6-4-3-3-8-9-5-0-7-2-9-1-3-1-0-9" d="m2028.4 1814 63.622-90.893 63.622 90.893z" fill="#006064"/>
   <path id="rect3387-3-7-0-5-3-3-2-7-61-6-4-3-3-46-3-9-7-5-9-1-6-0-3-9-4-4" d="m1901.1 1814 63.622-90.893 63.622 90.893z" fill="#26c6da"/>
   <path id="rect3387-3-7-0-5-3-3-2-7-61-6-4-3-3-4-0-4-9-5-3-4-3-7-6-6-4" d="m1964.8 1904.9 63.622-90.893 63.622 90.893z" fill="#00acc1"/>
   <path id="rect3387-3-7-0-5-3-3-2-7-61-6-4-3-3-0-9-2-4-5-5-6-0-0-5-5" d="m2028.4 1814 63.622 90.893 63.622-90.893z" fill="#006064"/>
   <path id="rect3387-3-7-0-5-3-3-2-7-61-6-4-3-3-46-2-6-6-7-0-3-6-3-3-4-3" d="m1901.1 1814 63.622 90.893 63.622-90.893z" fill="#00bcd4"/>
   <path id="rect3387-3-7-0-5-3-3-2-7-61-6-4-3-3-4-5-3-6-2-4-0-7-8-7-0-1-6-3" d="m1964.8 1904.9 63.622 90.893 63.622-90.893z" fill="#0097a7"/>
   <path id="rect3387-3-7-0-5-3-3-2-7-61-6-4-3-3-8-9-9-2-9-3-3-4-0-38-8-1-3" d="m2092 1904.9-63.613 90.883a181.81 181.81 0 0 0 98.219 -28.822 181.81 181.81 0 0 0 5.8887 -4.211l-40.494-57.85z" fill="#00838f"/>
   <path id="rect3387-3-7-0-5-3-3-2-7-61-6-4-3-3-46-3-9-3-6-9-3-4-6-2-5-6-0-3" d="m1964.8 1904.9-40.572 57.963a181.81 181.81 0 0 0 1.5352 1.166 181.81 181.81 0 0 0 31.857 17.402 181.81 181.81 0 0 0 35.221 10.809 181.81 181.81 0 0 0 1.8164 0.2754 181.81 181.81 0 0 0 0.2851 0.043 181.81 181.81 0 0 0 33.473 3.2247l-63.615-90.883z" fill="#006064"/>
  </g>
 </g>
 <g id="g4520" font-size="40px" transform="translate(.0078269 -.0198)">
  <flowRoot id="flowRoot3356" style="word-spacing:0px;letter-spacing:0px" font-family="sans-serif" xml:space="preserve" line-height="125%"><flowRegion id="flowRegion3358"><rect id="rect3360" y="-21.57" width="408.3" height="214.16" x="314.31"/></flowRegion><flowPara id="flowPara3362"/></flowRoot>
  <flowRoot id="flowRoot3437" style="word-spacing:0px;letter-spacing:0px" font-family="Roboto" xml:space="preserve" line-height="125%"><flowRegion id="flowRegion3439"><rect id="rect3441" y="-682.27" width="1089.5" x="-78.442" height="300.69"/></flowRegion><flowPara id="flowPara3443"/></flowRoot>
  <flowRoot id="flowRoot3445" style="word-spacing:0px;letter-spacing:0px" xml:space="preserve" transform="translate(-.00045777)" font-family="sans-serif" line-height="125%"><flowRegion id="flowRegion3447"><rect id="rect3449" y="-1065.8" width="1821.6" height="810.56" x="-928.23"/></flowRegion><flowPara id="flowPara3451"/></flowRoot>
  <flowRoot id="flowRoot3453" style="word-spacing:0px;letter-spacing:0px" font-family="sans-serif" xml:space="preserve" line-height="125%"><flowRegion id="flowRegion3455"><rect id="rect3457" y="-714.9" width="295.82" height="280.41" x="215.7"/></flowRegion><flowPara id="flowPara3459"/></flowRoot>
 </g>
 <g id="g3469" transform="translate(78.68 -142)">
  <g id="g3471" transform="translate(-1979.8,-1490.2)">
   <path id="path3473" d="m1964.8 1723.1 63.622-90.893 63.622 90.893z" fill="#80deea"/>
   <path id="path3475" d="m2028.4 1632.2 63.621 90.893 40.574-57.965a181.81 181.81 0 0 0 -17.035 -10.672 181.81 181.81 0 0 0 -33.434 -14.135 181.81 181.81 0 0 0 -53.727 -8.1211z" fill="#b2ebf2"/>
   <path id="path3477" d="m2028.4 1632.2a181.81 181.81 0 0 0 -12.859 0.4551 181.81 181.81 0 0 0 -35.774 6.1699 181.81 181.81 0 0 0 -49.598 22.197 181.81 181.81 0 0 0 -5.8828 4.207l40.496 57.856 63.617-90.885z" fill="#006064"/>
   <path id="path3479" d="m1964.8 1723.1 63.622 90.893 63.622-90.893z" fill="#4dd0e1"/>
   <path id="path3481" d="m2028.4 1814 63.622-90.893 63.622 90.893z" fill="#006064"/>
   <path id="path3483" d="m1901.1 1814 63.622-90.893 63.622 90.893z" fill="#26c6da"/>
   <path id="path3485" d="m1964.8 1904.9 63.622-90.893 63.622 90.893z" fill="#00acc1"/>
   <path id="path3487" d="m2028.4 1814 63.622 90.893 63.622-90.893z" fill="#006064"/>
   <path id="path3489" d="m1901.1 1814 63.622 90.893 63.622-90.893z" fill="#00bcd4"/>
   <path id="path3491" d="m1964.8 1904.9 63.622 90.893 63.622-90.893z" fill="#0097a7"/>
   <path id="path3493" d="m2092 1904.9-63.613 90.883a181.81 181.81 0 0 0 98.219 -28.822 181.81 181.81 0 0 0 5.8887 -4.211l-40.494-57.85z" fill="#00838f"/>
   <path id="path3495" d="m1964.8 1904.9-40.572 57.963a181.81 181.81 0 0 0 1.5352 1.166 181.81 181.81 0 0 0 31.857 17.402 181.81 181.81 0 0 0 35.221 10.809 181.81 181.81 0 0 0 1.8164 0.2754 181.81 181.81 0 0 0 0.2851 0.043 181.81 181.81 0 0 0 33.473 3.2247l-63.615-90.883z" fill="#006064"/>
  </g>
 </g>
 <g id="flowRoot3497" fill="#fff" transform="matrix(.61805 0 0 .61805 451.99 430.31)">
  <path id="path3506" d="m19.047-343.67h-84.72l-17.725 50.922h-39.506l82.617-218.71h34.098l82.767 218.71h-39.656l-17.875-50.922zm-74.055-30.643h63.389l-31.695-90.728-31.695 90.728z"/>
  <path id="path3508" d="m139.52-323.09h99.29v30.343h-137.29v-218.71h38.004v188.37z"/>
  <path id="path3510" d="m395.33-480.81h-68.196v188.07h-37.703v-188.07h-67.595v-30.643h173.49v30.643z"/>
  <path id="path3512" d="m552-390.38h-89.827v67.295h105v30.343h-143v-218.71h141.95v30.643h-103.95v60.385h89.827v30.042z"/>
  <path id="path3514" d="m673.67-432.44 45.965-79.012h43.862l-66.093 108.45 67.595 110.26h-44.313l-47.016-80.213-47.167 80.213h-44.162l67.746-110.26-66.243-108.45h43.862l45.965 79.012z"/>
  <path id="path3516" d="m964.03-396.39q0 32.145-11.116 56.48-11.116 24.184-31.845 37.253-20.579 12.918-47.467 12.918-26.588 0-47.467-12.918-20.729-13.068-32.145-37.102-11.266-24.034-11.416-55.428v-12.317q0-31.995 11.266-56.48 11.416-24.485 31.995-37.403 20.729-13.068 47.467-13.068t47.317 12.918q20.729 12.768 31.995 36.952 11.266 24.034 11.416 56.029v12.167zm-38.004-11.416q0-36.351-13.82-55.729-13.669-19.377-38.905-19.377-24.635 0-38.604 19.377-13.82 19.227-14.12 54.527v12.618q0 36.051 13.97 55.729 14.12 19.678 39.055 19.678 25.236 0 38.755-19.227 13.669-19.227 13.669-56.179v-11.416z"/>
 </g>
</svg>
