<?xml version="1.0" encoding="UTF-8" standalone="no"?>
<!-- Created with Inkscape (http://www.inkscape.org/) -->

<svg
   xmlns:dc="http://purl.org/dc/elements/1.1/"
   xmlns:cc="http://creativecommons.org/ns#"
   xmlns:rdf="http://www.w3.org/1999/02/22-rdf-syntax-ns#"
   xmlns:svg="http://www.w3.org/2000/svg"
   xmlns="http://www.w3.org/2000/svg"
   xmlns:sodipodi="http://sodipodi.sourceforge.net/DTD/sodipodi-0.dtd"
   xmlns:inkscape="http://www.inkscape.org/namespaces/inkscape"
   id="svg4272"
   height="102.62mm"
   width="71.822mm"
   version="1.1"
   viewBox="0 0 254.4878 363.6161"
   inkscape:version="0.91 r13725"
   sodipodi:docname="logo.svg">
  <defs
     id="defs20" />
  <sodipodi:namedview
     pagecolor="#ffffff"
     bordercolor="#666666"
     borderopacity="1"
     objecttolerance="10"
     gridtolerance="10"
     guidetolerance="10"
     inkscape:pageopacity="0"
     inkscape:pageshadow="2"
     inkscape:window-width="1600"
     inkscape:window-height="876"
     id="namedview18"
     showgrid="false"
     inkscape:zoom="0.64903959"
     inkscape:cx="-170.88912"
     inkscape:cy="181.80709"
     inkscape:window-x="0"
     inkscape:window-y="24"
     inkscape:window-maximized="1"
     inkscape:current-layer="svg4272" />
  <metadata
     id="metadata4277">
    <rdf:RDF>
      <cc:Work
         rdf:about="">
        <dc:format>image/svg+xml</dc:format>
        <dc:type
           rdf:resource="http://purl.org/dc/dcmitype/StillImage" />
        <dc:title />
      </cc:Work>
    </rdf:RDF>
  </metadata>
  <g
     id="layer1"
     transform="translate(78.672 -141.98)">
    <g
       id="g3553"
       transform="translate(-1979.8 -1490.2)">
      <path
         id="rect3387-3-7-0-5-3-3-2-7-61-6-4-3-3-4-7-4-5-1-69-8-2-2-2-9"
         d="m1964.8 1723.1 63.622-90.893 63.622 90.893z"
         fill="#80deea" />
      <path
         id="rect3387-3-7-0-5-3-3-2-7-61-6-4-3-3-6-3-8-5-3-9-9-5-0-8"
         d="m2028.4 1632.2 63.621 90.893 40.574-57.965a181.81 181.81 0 0 0 -17.035 -10.672 181.81 181.81 0 0 0 -33.434 -14.135 181.81 181.81 0 0 0 -53.727 -8.1211z"
         fill="#b2ebf2" />
      <path
         id="rect3387-3-7-0-5-3-3-2-7-61-6-4-3-3-46-9-9-3-0-0-9-1-2-7-0"
         d="m2028.4 1632.2a181.81 181.81 0 0 0 -12.859 0.4551 181.81 181.81 0 0 0 -35.774 6.1699 181.81 181.81 0 0 0 -49.598 22.197 181.81 181.81 0 0 0 -5.8828 4.207l40.496 57.856 63.617-90.885z"
         fill="#006064" />
      <path
         id="rect3387-3-7-0-5-3-3-2-7-61-6-4-3-3-4-5-3-9-7-4-1-7-1-5-7-4-2"
         d="m1964.8 1723.1 63.622 90.893 63.622-90.893z"
         fill="#4dd0e1" />
      <path
         id="rect3387-3-7-0-5-3-3-2-7-61-6-4-3-3-8-9-5-0-7-2-9-1-3-1-0-9"
         d="m2028.4 1814 63.622-90.893 63.622 90.893z"
         fill="#006064" />
      <path
         id="rect3387-3-7-0-5-3-3-2-7-61-6-4-3-3-46-3-9-7-5-9-1-6-0-3-9-4-4"
         d="m1901.1 1814 63.622-90.893 63.622 90.893z"
         fill="#26c6da" />
      <path
         id="rect3387-3-7-0-5-3-3-2-7-61-6-4-3-3-4-0-4-9-5-3-4-3-7-6-6-4"
         d="m1964.8 1904.9 63.622-90.893 63.622 90.893z"
         fill="#00acc1" />
      <path
         id="rect3387-3-7-0-5-3-3-2-7-61-6-4-3-3-0-9-2-4-5-5-6-0-0-5-5"
         d="m2028.4 1814 63.622 90.893 63.622-90.893z"
         fill="#006064" />
      <path
         id="rect3387-3-7-0-5-3-3-2-7-61-6-4-3-3-46-2-6-6-7-0-3-6-3-3-4-3"
         d="m1901.1 1814 63.622 90.893 63.622-90.893z"
         fill="#00bcd4" />
      <path
         id="rect3387-3-7-0-5-3-3-2-7-61-6-4-3-3-4-5-3-6-2-4-0-7-8-7-0-1-6-3"
         d="m1964.8 1904.9 63.622 90.893 63.622-90.893z"
         fill="#0097a7" />
      <path
         id="rect3387-3-7-0-5-3-3-2-7-61-6-4-3-3-8-9-9-2-9-3-3-4-0-38-8-1-3"
         d="m2092 1904.9-63.613 90.883a181.81 181.81 0 0 0 98.219 -28.822 181.81 181.81 0 0 0 5.8887 -4.211l-40.494-57.85z"
         fill="#00838f" />
      <path
         id="rect3387-3-7-0-5-3-3-2-7-61-6-4-3-3-46-3-9-3-6-9-3-4-6-2-5-6-0-3"
         d="m1964.8 1904.9-40.572 57.963a181.81 181.81 0 0 0 1.5352 1.166 181.81 181.81 0 0 0 31.857 17.402 181.81 181.81 0 0 0 35.221 10.809 181.81 181.81 0 0 0 1.8164 0.2754 181.81 181.81 0 0 0 0.2851 0.043 181.81 181.81 0 0 0 33.473 3.2247l-63.615-90.883z"
         fill="#006064" />
    </g>
  </g>
  <flowRoot
     xml:space="preserve"
     id="flowRoot3356"
     style="fill:black;stroke:none;stroke-opacity:1;stroke-width:1px;stroke-linejoin:miter;stroke-linecap:butt;fill-opacity:1;font-family:sans-serif;font-style:normal;font-weight:normal;font-size:40px;line-height:125%;letter-spacing:0px;word-spacing:0px"><flowRegion
       id="flowRegion3358"><rect
         id="rect3360"
         width="408.29559"
         height="214.1626"
         x="314.31058"
         y="-21.570333" /></flowRegion><flowPara
       id="flowPara3362" /></flowRoot></svg>
